PathFileType	4	(X/Y/Z)	C:\Users\Basilio\Documents\Thesis Gigler\squatting_fais\c3dfiles\047\SLS_pre_back1\markers_experimental.trc
DataRate	CameraRate	NumFrames	NumMarkers	Units	OrigDataRate	OrigDataStartFrame	OrigNumFrames
200.000000	200.000000	4	60	mm	200.000000	315	1260
Frame#	Time	FHD			LBHD			RBHD			C7			T10			CLAV			LSHO			LUUPA			LMUPA			LDUPA			LLEP			LMEP			LRAD			LUL			LRFIN			RSHO			RUPA1			RMUPA			RDUPA			RLEP			RMEP			RUL			RUFIN			LASI			RASI			USACR			LSACR			RSACR			LTHI1			LTHI2			LTHI3			LTHI4			LLFC			LMFC			LTIB1			LTIB2			LTIB3			LTIB4			LLMAL			LMMAL			LMT1			LMT2			LMT5			RTHI			RTHI2			RTHI3			RTHI4			RLFC			RMFC			RTIB1			RTIB2			RTIB3			RTIB4			RLMAL			RHEE			RMT1			RMT2			RMT5			RMMAL			*59			
		X1	Y1	Z1	X2	Y2	Z2	X3	Y3	Z3	X4	Y4	Z4	X5	Y5	Z5	X6	Y6	Z6	X7	Y7	Z7	X8	Y8	Z8	X9	Y9	Z9	X10	Y10	Z10	X11	Y11	Z11	X12	Y12	Z12	X13	Y13	Z13	X14	Y14	Z14	X15	Y15	Z15	X16	Y16	Z16	X17	Y17	Z17	X18	Y18	Z18	X19	Y19	Z19	X20	Y20	Z20	X21	Y21	Z21	X22	Y22	Z22	X23	Y23	Z23	X24	Y24	Z24	X25	Y25	Z25	X26	Y26	Z26	X27	Y27	Z27	X28	Y28	Z28	X29	Y29	Z29	X30	Y30	Z30	X31	Y31	Z31	X32	Y32	Z32	X33	Y33	Z33	X34	Y34	Z34	X35	Y35	Z35	X36	Y36	Z36	X37	Y37	Z37	X38	Y38	Z38	X39	Y39	Z39	X40	Y40	Z40	X41	Y41	Z41	X42	Y42	Z42	X43	Y43	Z43	X44	Y44	Z44	X45	Y45	Z45	X46	Y46	Z46	X47	Y47	Z47	X48	Y48	Z48	X49	Y49	Z49	X50	Y50	Z50	X51	Y51	Z51	X52	Y52	Z52	X53	Y53	Z53	X54	Y54	Z54	X55	Y55	Z55	X56	Y56	Z56	X57	Y57	Z57	X58	Y58	Z58	X59	Y59	Z59	X60	Y60	Z60	

316	1.575	-111.6504745483399	1724.524169921875	-1086.913452148438	-290.1531982421876	1704.466186523438	-1121.408325195313	-273.9881591796876	1704.182250976563	-974.4048461914065	-332.8318176269532	1528.77490234375	-1054.035034179688	-373.4679870605469	1216.738159179688	-1031.222290039063	-185.9168090820313	1457.915649414063	-1077.733032226563	-256.4162902832032	1478.196044921875	-1234.689331054688	-201.6888732910157	1315.204467773438	-1324.548828125	-154.6871185302735	1335.680908203125	-1322.343017578125	-143.0593872070313	1277.413696289063	-1331.73681640625	-73.28907775878908	1254.893432617188	-1333.211059570313	-96.03373718261722	1209.51123046875	-1257.183959960938	99.25888824462893	1346.542358398438	-1165.294067382813	128.6288452148438	1276.700805664063	-1158.715576171875	189.3649597167969	1347.492431640625	-1150.465209960938	-218.862045288086	1492.2138671875	-915.521423339844	-133.8089599609375	1345.201049804688	-812.5687255859377	-93.02925872802736	1362.373657226563	-833.165954589844	-74.67296600341798	1308.469848632813	-814.079528808594	-2.792644500732422	1288.071899414063	-830.2783203125002	-37.70658874511719	1222.258666992188	-880.0698852539065	170.1550445556641	1293.117309570313	-1028.528442382813	153.6307067871094	1372.106201171875	-1073.123291015625	-209.8399658203126	980.8309326171877	-1117.351196289063	-206.5965576171876	1001.677062988281	-886.8382568359377	-385.980682373047	1081.269287109375	-1011.989501953125	-393.8912658691407	1048.239624023438	-1037.405029296875	-390.1248168945314	1052.970825195313	-979.448181152344	-294.1406555175782	827.4831542968752	-1181.632446289063	-257.7125244140626	751.4810180664064	-1177.095458984375	-209.7745666503907	756.5692138671876	-1164.342163085938	-285.6510314941407	697.3753662109376	-1168.882690429688	-305.0292053222657	526.9324340820314	-1125.678833007813	-269.5356445312501	525.2579345703126	-1007.0390625	-281.4819335937501	343.4786376953126	-1024.897705078125	-293.7146301269532	294.9514770507813	-1097.2451171875	-277.3163757324219	293.3461303710938	-1052.435424804688	-295.5971069335938	218.7505493164063	-1018.151489257813	-351.6598815917969	125.2879180908203	-1059.00146484375	-329.3762207031251	139.5381011962891	-972.8603515625002	-209.8627471923829	64.22705078125001	-991.101989746094	-208.9574584960938	61.54134750366212	-1036.2216796875	-259.0238037109376	50.56034088134767	-1080.078491210938	-282.4161376953126	831.4968872070315	-780.6482543945315	-236.5661315917969	783.9818115234377	-767.1384277343751	-205.8027801513672	787.258972167969	-776.590759277344	-252.7031402587891	701.7598266601564	-757.0573730468751	-234.8713836669922	569.6484375000001	-760.6309814453126	-213.2803649902344	531.5287475585939	-883.8511962890627	-323.7527160644532	484.4482421875001	-770.6135864257815	-422.5848083496095	530.8198852539064	-755.8407592773439	-408.9649658203126	485.8513488769532	-756.0883789062501	-449.477264404297	455.3181457519532	-788.7344360351565	-613.5228881835939	483.1815795898439	-785.122985839844	-630.8643798828126	521.9561157226564	-855.3074340820315	-657.8929443359376	317.1084899902344	-829.3211059570315	-664.6579589843751	320.6446533203126	-786.490173339844	-700.7509765625001	380.7973327636719	-749.7885131835939	-581.2212524414064	435.9197998046876	-858.540466308594	nan	nan	nan	
317	1.58	-111.1443481445313	1724.73779296875	-1087.107299804688	-290.0485534667969	1704.511108398438	-1121.538818359375	-273.6934509277344	1704.2392578125	-974.5401611328127	-332.3696594238282	1528.695434570313	-1054.20263671875	-373.3520812988282	1216.830078125	-1031.212158203125	-185.4980163574219	1457.994262695313	-1077.938720703125	-256.1626586914063	1478.18896484375	-1234.8447265625	-201.4239807128907	1315.171508789063	-1324.655883789063	-154.5224304199219	1335.623046875	-1322.417602539063	-142.5535430908203	1277.633056640625	-1331.924438476563	-73.18344879150392	1254.913452148438	-1333.23046875	-95.91479492187501	1209.573974609375	-1257.250732421875	99.42555236816409	1346.5322265625	-1165.369262695313	128.8486022949219	1276.725830078125	-1158.780517578125	189.5589904785157	1347.4677734375	-1150.524291992188	-218.7458038330079	1492.310913085938	-915.548278808594	-133.5411682128907	1345.461181640625	-812.575622558594	-92.82391357421876	1362.576416015625	-833.322937011719	-74.17781066894533	1308.600952148438	-814.2879638671877	-2.486748218536377	1288.245483398438	-830.3897094726565	-37.10110473632813	1222.492309570313	-880.3916015625002	170.550033569336	1293.172119140625	-1028.833129882813	154.0391693115235	1372.306640625	-1073.190063476563	-210.0003509521485	980.8696899414065	-1117.36181640625	-206.6467895507813	1001.674865722656	-886.9116210937502	-386.037811279297	1081.338012695313	-1011.964721679688	-393.9463195800782	1048.289306640625	-1037.359985351563	-390.1729125976564	1053.006958007813	-979.3779296875002	-294.2669372558594	827.4829101562502	-1181.610107421875	-257.8855895996094	751.6071777343751	-1177.134765625	-209.9443054199219	756.6024780273439	-1164.456298828125	-285.6722106933594	697.3536376953126	-1168.90185546875	-305.0574645996094	526.9373779296876	-1125.666748046875	-269.2361450195313	525.2902221679689	-1007.253845214844	-281.3962097167969	343.5999450683594	-1025.0791015625	-293.6691894531251	295.0431518554688	-1097.477416992188	-277.2967224121094	293.2562255859376	-1052.649169921875	-295.5382690429688	218.7401885986329	-1018.386291503906	-351.7259216308594	125.2811889648438	-1059.012451171875	-329.3821105957032	139.606674194336	-972.9338989257815	-210.0440063476563	64.19949340820314	-991.102966308594	-208.9930114746094	61.42968750000001	-1036.242431640625	-259.0339965820313	50.51271438598634	-1080.083862304688	-282.4463806152344	831.5275878906252	-780.7326660156252	-236.6214141845704	783.9916992187502	-767.2210693359376	-205.947006225586	787.3052978515627	-776.5122680664065	-252.7750854492188	701.6248779296876	-756.9911499023439	-234.9200134277344	569.6598510742189	-760.6092529296876	-213.4949188232422	531.5700683593751	-883.905456542969	-323.8202209472657	484.4772338867189	-770.7342529296877	-422.6612548828126	530.8232421875001	-755.7708740234376	-409.0408325195314	485.8851623535157	-756.0003051757814	-449.5716857910157	455.238006591797	-788.8094482421877	-613.7247924804689	483.1542053222657	-784.825622558594	-631.1450805664064	521.9412231445314	-855.0245361328127	-657.9704589843751	317.0367431640626	-829.2434692382815	-664.7569580078126	320.6874694824219	-786.320495605469	-700.7657470703126	380.7603149414063	-749.6517333984376	-581.4332885742189	435.9680786132814	-858.358581542969	nan	nan	nan	
318	1.585	-111.013053894043	1724.556396484375	-1087.191772460938	-289.7137145996094	1704.501586914063	-1121.724731445313	-273.2795715332032	1704.273681640625	-974.7788696289065	-332.1266174316407	1528.784057617188	-1054.250854492188	-373.4266967773438	1216.915283203125	-1031.196655273438	-185.1789703369141	1458.05517578125	-1078.25390625	-255.9442749023438	1478.204711914063	-1234.915283203125	-201.1816864013672	1315.129028320313	-1324.726684570313	-154.5894165039063	1335.643310546875	-1322.343872070313	-142.4734191894532	1277.328002929688	-1331.896118164063	-72.9429168701172	1254.834350585938	-1333.310180664063	-95.84001922607423	1209.62109375	-1257.24365234375	99.58398437500003	1346.517700195313	-1165.444580078125	129.0378875732422	1276.76123046875	-1158.869140625	189.8362731933594	1347.513916015625	-1150.684448242188	-218.6251525878907	1492.35498046875	-915.5796508789065	-133.4030151367188	1345.602172851563	-812.6141357421877	-92.58528137207033	1362.713256835938	-833.4205322265627	-73.90898895263673	1308.809814453125	-814.4338989257815	-2.227043151855469	1288.39306640625	-830.4595947265627	-36.9043312072754	1222.609741210938	-880.3984375000002	170.8363342285157	1293.267456054688	-1029.273193359375	154.0728912353516	1372.194458007813	-1072.991577148438	-210.1297302246094	980.8720703125002	-1117.40869140625	-206.6917266845704	1001.682678222656	-886.9795532226565	-386.1499633789064	1081.418823242188	-1011.846618652344	-394.0766906738282	1048.412719726563	-1037.271240234375	-390.2254638671876	1053.140258789063	-979.3295898437502	-294.4357910156251	827.486022949219	-1181.606811523438	-258.0220031738282	751.6478881835939	-1177.106079101563	-210.0331268310547	756.6408081054689	-1164.488159179688	-285.7968444824219	697.3769531250001	-1168.922973632813	-305.0051574707032	526.9574584960939	-1125.7109375	-268.6427307128907	525.3638305664064	-1007.438354492188	-281.1611633300782	343.5471191406251	-1025.275024414063	-293.7493286132813	295.0201416015626	-1097.55126953125	-277.2972717285157	293.2287902832032	-1052.75634765625	-295.5043334960938	218.7650909423829	-1018.373291015625	-351.8211669921876	125.3098449707032	-1059.013671875	-329.3617248535157	139.6595306396485	-972.9832763671877	-209.8905181884766	64.25272369384767	-991.2332153320315	-209.8095092773438	61.34441375732423	-1036.266967773438	-259.0340881347657	50.51594543457033	-1080.13671875	-282.5021362304688	831.5498046875002	-780.7052001953127	-236.6421508789063	783.9746704101565	-767.2377319335939	-206.0733337402344	787.2770996093752	-776.5809326171877	-252.9245758056641	701.8504028320314	-757.0795898437501	-235.0732727050782	569.6245117187501	-760.6599731445314	-213.7762603759766	531.9453125000001	-883.8782348632815	-323.8603515625001	484.4664001464845	-770.6845703125002	-422.7149047851564	530.8477783203126	-755.7661132812501	-409.1192321777345	485.8510131835939	-755.9310302734376	-449.667694091797	455.198944091797	-788.7950439453127	-614.0036621093751	483.1325988769532	-784.6716308593752	-631.2178955078126	521.9385375976564	-854.9208984375002	-658.0769042968751	316.8625488281251	-829.0556640625002	-664.8375244140626	320.8005371093751	-785.6877441406252	-700.8635253906251	380.7649230957032	-749.3391723632814	-581.5859375000001	435.9093627929689	-858.2146606445315	nan	nan	nan	
319	1.59	-110.9021224975586	1724.570434570313	-1087.340576171875	-289.4706420898438	1704.4609375	-1121.941040039063	-273.0377197265626	1704.31005859375	-974.8115844726565	-331.6665954589844	1528.86279296875	-1054.487548828125	-373.4097290039063	1216.963745117188	-1031.193725585938	-184.8779602050782	1457.994018554688	-1078.448974609375	-255.8238983154297	1478.152465820313	-1234.986328125	-200.9955596923829	1315.091674804688	-1324.810913085938	-154.4833068847657	1335.577392578125	-1322.263427734375	-142.1290588378907	1277.290283203125	-1331.995849609375	-72.73326110839845	1254.763427734375	-1333.3662109375	-95.83595275878908	1209.70263671875	-1257.325561523438	99.8335876464844	1346.47265625	-1165.6318359375	129.2722473144532	1276.749145507813	-1158.9609375	190.0319366455078	1347.476806640625	-1150.8046875	-218.2061309814454	1492.453735351563	-915.794372558594	-133.1355743408203	1345.758911132813	-812.627624511719	-92.35317230224611	1362.866577148438	-833.408386230469	-73.69903564453126	1308.9345703125	-814.4420166015627	-2.01242470741272	1288.569091796875	-830.5427856445315	-36.7135124206543	1222.722778320313	-880.3518676757815	170.9513549804688	1293.304565429688	-1029.210571289063	154.6802825927735	1372.345336914063	-1073.237670898438	-210.2906494140626	980.9023437500002	-1117.48828125	-206.7173919677735	1001.67138671875	-887.000427246094	-386.2313842773439	1081.513671875	-1011.810180664063	-394.2582397460939	1048.481689453125	-1037.209716796875	-390.3712158203126	1053.116943359375	-979.217468261719	-294.6622314453126	827.4876708984377	-1181.6083984375	-258.2190551757813	751.6887207031251	-1177.131103515625	-210.0822906494141	756.6826782226564	-1164.560668945313	-285.8186645507813	697.3450317382814	-1168.928344726563	-304.9900817871094	526.9561767578126	-1125.78857421875	-267.8397216796876	525.5092163085939	-1007.746520996094	-281.0304565429688	343.5381164550782	-1025.3447265625	-294.0475158691407	295.3700561523438	-1097.632446289063	-277.2933959960938	293.2402954101563	-1052.861206054688	-295.5051269531251	218.7798461914063	-1018.420349121094	-351.7640991210938	125.2597885131836	-1059.0869140625	-329.3445739746094	139.6869354248047	-973.008972167969	-210.0731201171876	64.17810821533205	-991.2119750976565	-209.0183563232422	61.31589126586915	-1036.308959960938	-259.0258789062501	50.49720764160158	-1080.1279296875	-282.5545349121094	831.5845336914065	-780.7192993164065	-236.7765502929688	784.0443115234377	-767.1913452148439	-206.1654663085938	787.2608032226565	-776.5971679687502	-253.1293487548829	701.7735595703126	-756.9617919921876	-235.1166992187501	569.5689086914064	-760.7216186523439	-214.0421752929688	531.9727783203126	-883.9329833984377	-323.9620056152344	484.4959716796876	-770.750671386719	-422.8706054687501	530.8217163085939	-755.5941162109376	-409.2689819335939	485.9106445312501	-755.6669311523439	-449.919891357422	455.2544860839845	-788.6860961914065	-614.1306762695314	483.1730041503907	-784.411071777344	-631.4003295898439	521.8678588867189	-854.7236328125002	-658.0441284179689	317.0365295410157	-829.026550292969	-664.7000732421876	320.6888122558594	-784.851013183594	-700.9478759765626	380.6934814453126	-749.0075683593751	-581.8276977539064	436.032684326172	-857.995788574219	nan	nan	nan	
